<svg xmlns="http://www.w3.org/2000/svg" width="48" height="48" viewBox="0 0 48 48"><defs><style>.a{fill:none;}.b{fill:#f07e0b;}.c{fill:#fff;}</style></defs><g transform="translate(-348 -1416)"><rect class="a" width="48" height="48" transform="translate(396 1464) rotate(180)"/><g transform="translate(356.994 1424.993)"><g transform="translate(0)"><path class="b" d="M11.988,0A11.988,11.988,0,1,0,23.976,11.988,11.988,11.988,0,0,0,11.988,0Z" transform="translate(3.006 3.007)"/></g><g transform="translate(9.753 8.49)"><path class="c" d="M49.707,33.506h-3.3a1.285,1.285,0,0,0-2.536,0h-3.3a.676.676,0,0,0-.676.676h0a.676.676,0,0,0,.676.676h9.13a.676.676,0,0,0,.676-.676h0A.676.676,0,0,0,49.707,33.506Z" transform="translate(-39.9 -32.429)"/><path class="c" d="M45.257,60.73a.676.676,0,0,0,.676.643h6.56a.676.676,0,0,0,.676-.643l.44-9.13H44.8Zm6-7.761a.474.474,0,0,1,.947.034l-.237,6.763a.473.473,0,0,1-.473.457h-.017a.473.473,0,0,1-.457-.49Zm-2.519.017a.473.473,0,1,1,.947,0V59.75a.473.473,0,1,1-.947,0Zm-2.063-.473a.473.473,0,0,1,.49.457l.237,6.746a.473.473,0,0,1-.457.49H46.93a.473.473,0,0,1-.473-.457L46.22,53a.473.473,0,0,1,.457-.49Z" transform="translate(-43.972 -48.359)"/></g></g></g></svg>