<svg xmlns="http://www.w3.org/2000/svg" width="50" height="50" viewBox="0 0 50 50"><defs><style>.a{fill:#c6c6c6;}.b{fill:#f7f7f7;}</style></defs><g transform="translate(-168 -13)"><path class="a" d="M25,.563a25,25,0,1,0,25,25A25,25,0,0,0,25,.563Z" transform="translate(168 12.438)"/><path class="b" d="M31.078,10.359H27.891V7.172a.8.8,0,0,0-.8-.8H25.5a.8.8,0,0,0-.8.8v3.188H21.516a.8.8,0,0,0-.8.8V12.75a.8.8,0,0,0,.8.8H24.7v3.187a.8.8,0,0,0,.8.8h1.594a.8.8,0,0,0,.8-.8V13.547h3.188a.8.8,0,0,0,.8-.8V11.156A.8.8,0,0,0,31.078,10.359ZM11.156,12.75A6.375,6.375,0,1,0,4.781,6.375,6.375,6.375,0,0,0,11.156,12.75Zm4.462,1.594h-.832a8.67,8.67,0,0,1-7.262,0H6.694A6.7,6.7,0,0,0,0,21.038v2.072A2.391,2.391,0,0,0,2.391,25.5H19.922a2.391,2.391,0,0,0,2.391-2.391V21.038A6.7,6.7,0,0,0,15.619,14.344Z" transform="translate(177.683 24.5)"/></g></svg>