<svg xmlns="http://www.w3.org/2000/svg" width="50" height="50" viewBox="0 0 50 50"><defs><style>.a{fill:#c6c6c6;}.b{fill:#f7f7f7;}</style></defs><g transform="translate(-157 -1446.254)"><path class="a" d="M25,.563a25,25,0,1,0,25,25A25,25,0,0,0,25,.563Z" transform="translate(157 1445.691)"/><path class="b" d="M30.406,18.592a5.842,5.842,0,0,0,0-2.122l1.285-.742a.361.361,0,0,0,.164-.423A7.474,7.474,0,0,0,30.2,12.446a.363.363,0,0,0-.448-.07l-1.285.742a5.847,5.847,0,0,0-1.838-1.061V10.574a.363.363,0,0,0-.284-.354,7.514,7.514,0,0,0-3.3,0,.363.363,0,0,0-.284.354v1.484a5.847,5.847,0,0,0-1.838,1.061l-1.285-.742a.364.364,0,0,0-.448.07A7.474,7.474,0,0,0,17.541,15.3a.367.367,0,0,0,.164.423l1.285.742a5.842,5.842,0,0,0,0,2.122l-1.285.742a.361.361,0,0,0-.164.423,7.511,7.511,0,0,0,1.654,2.859.363.363,0,0,0,.448.07l1.285-.742A5.847,5.847,0,0,0,22.766,23v1.484a.363.363,0,0,0,.284.354,7.514,7.514,0,0,0,3.3,0,.363.363,0,0,0,.284-.354V23a5.847,5.847,0,0,0,1.838-1.061l1.285.742a.364.364,0,0,0,.448-.07,7.474,7.474,0,0,0,1.654-2.859.367.367,0,0,0-.164-.423l-1.285-.742Zm-5.7,1.355a2.416,2.416,0,1,1,2.416-2.416A2.418,2.418,0,0,1,24.7,19.947Zm-13.547-7.2A6.375,6.375,0,1,0,4.781,6.375,6.375,6.375,0,0,0,11.156,12.75ZM21.177,24.031c-.115-.06-.229-.129-.339-.194l-.393.229a1.954,1.954,0,0,1-2.416-.364,9.082,9.082,0,0,1-2-3.466,1.948,1.948,0,0,1,.892-2.276l.393-.229q-.007-.194,0-.388l-.393-.229a1.946,1.946,0,0,1-.892-2.276c.045-.144.11-.289.159-.433-.189-.015-.374-.06-.568-.06h-.832a8.67,8.67,0,0,1-7.262,0H6.694A6.7,6.7,0,0,0,0,21.038v2.072A2.391,2.391,0,0,0,2.391,25.5H19.922a2.388,2.388,0,0,0,1.355-.423,1.94,1.94,0,0,1-.1-.588Z" transform="translate(166.562 1458.754)"/></g></svg>