<svg xmlns="http://www.w3.org/2000/svg" width="24" height="19.2" viewBox="0 0 24 19.2"><defs><style>.a{fill:#333132;}</style></defs><path class="a" d="M9.564,9.812a.6.6,0,0,0,.849,0l.424-.424a.6.6,0,0,0,0-.849L9.5,7.2l1.339-1.339a.6.6,0,0,0,0-.849l-.424-.424a.6.6,0,0,0-.849,0L7.376,6.775a.6.6,0,0,0,0,.849L9.564,9.812Zm3.6-.424.424.424a.6.6,0,0,0,.849,0l2.188-2.188a.6.6,0,0,0,0-.849L14.437,4.588a.6.6,0,0,0-.849,0l-.424.424a.6.6,0,0,0,0,.849L14.5,7.2,13.164,8.54a.6.6,0,0,0,0,.849ZM23.4,15.6H14.308a1.182,1.182,0,0,1-1.228,1.2H10.8a1.273,1.273,0,0,1-1.229-1.2H.6a.6.6,0,0,0-.6.6v.6a2.407,2.407,0,0,0,2.4,2.4H21.6A2.407,2.407,0,0,0,24,16.8v-.6A.6.6,0,0,0,23.4,15.6ZM21.6,1.8A1.805,1.805,0,0,0,19.8,0H4.2A1.805,1.805,0,0,0,2.4,1.8V14.4H21.6ZM19.2,12H4.8V2.4H19.2Z"/></svg>