<svg xmlns="http://www.w3.org/2000/svg" xmlns:xlink="http://www.w3.org/1999/xlink" width="16" height="16" preserveAspectRatio="xMidYMid meet" viewBox="0 0 16 16" style="-ms-transform: rotate(360deg); -webkit-transform: rotate(360deg); transform: rotate(360deg);"><path d="M5 6h2v2H5zm3 0h2v2H8zm3 0h2v2h-2zm-9 6h2v2H2zm3 0h2v2H5zm3 0h2v2H8zM5 9h2v2H5zm3 0h2v2H8zm3 0h2v2h-2zM2 9h2v2H2zm11-9v1h-2V0H4v1H2V0H0v16h15V0h-2zm1 15H1V4h13v11z" fill="#6D6E71"/><rect x="0" y="0" width="16" height="16" fill="rgba(0, 0, 0, 0)" /></svg>