<svg xmlns="http://www.w3.org/2000/svg" xmlns:xlink="http://www.w3.org/1999/xlink" width="30.3" height="28.74" viewBox="0 0 30.3 28.74"><defs><style>.a{fill:none;}.b{opacity:0.5;}.c{clip-path:url(#a);}.d{isolation:isolate;}.e{clip-path:url(#b);}.f{fill:#005570;}</style><clipPath id="a"><rect class="a" width="30.3" height="28.74"/></clipPath><clipPath id="b"><rect class="a" width="10.7" height="14.99" transform="translate(10.6)"/></clipPath></defs><g class="b" transform="translate(15.15 14.37)"><g class="c" transform="translate(-15.15 -14.37)"><g class="d"><g class="e"><path class="f" d="M11.9,15l9.4-9.4H16L20,0H14.6l-4,7.5h4Z"/></g></g><path class="f" d="M28.6,16.9a2.3,2.3,0,0,0-2.8,1.4h0a2.5,2.5,0,0,0,0,1.4l-7.3,4.8-.8-.5a2.2,2.2,0,0,0-1.8.2l-3.7-4.4v-.4a2.5,2.5,0,0,0-.3-1.9,2.3,2.3,0,0,0-1.4-1.1,2.3,2.3,0,0,0-2.7,1.7h0a2.5,2.5,0,0,0,.1,1.4L4,21.7a2.3,2.3,0,0,0-3.9.8,2.5,2.5,0,0,0,1.5,3.1,2.3,2.3,0,0,0,2.8-1.4h0a2.5,2.5,0,0,0,0-1.3l4-2.1.9.6h.1a2.2,2.2,0,0,0,1.9-.4L15,25l-.3.6a2.4,2.4,0,0,0,1.5,3A2.2,2.2,0,0,0,19,27.2h0a2.5,2.5,0,0,0,0-1.6l7.2-4.7a2.3,2.3,0,0,0,3.9-.9,2.5,2.5,0,0,0-1.5-3.1M3.5,23.7a1.2,1.2,0,0,1-1.5.8H2a1.3,1.3,0,0,1-.8-1.6A1.2,1.2,0,0,1,2.6,22h.1a1.3,1.3,0,0,1,.8,1.6M18,26.8a1.2,1.2,0,0,1-1.4.8h-.1a1.345,1.345,0,0,1-.3-2.4,1.2,1.2,0,0,1,1.4.2,1.3,1.3,0,0,1,.4,1.4m11-7.2a1.2,1.2,0,0,1-1.4.8h-.1a1.345,1.345,0,0,1-.3-2.4,1.2,1.2,0,0,1,1.4.2,1.3,1.3,0,0,1,.4,1.4"/></g></g></svg>