<svg xmlns="http://www.w3.org/2000/svg" width="30.27" height="26.684" viewBox="0 0 30.27 26.684"><defs><style>.a{fill:#fff;isolation:isolate;}</style></defs><g transform="translate(0 0)"><path class="a" d="M28.626,14.836a2.254,2.254,0,0,0-2.846,1.436c-.012.035-.022.07-.032.106a2.527,2.527,0,0,0-.027,1.353l-7.286,4.782a2.258,2.258,0,0,0-.821-.505,2.164,2.164,0,0,0-1.754.149l-3.7-4.367a2.451,2.451,0,0,0,.126-.412,2.521,2.521,0,0,0-.271-1.857,2.333,2.333,0,0,0-1.419-1.092,2.266,2.266,0,0,0-2.71,1.711l-.008.034a2.523,2.523,0,0,0,.057,1.37L4.05,19.626a2.265,2.265,0,0,0-3.942.808A2.494,2.494,0,0,0,1.644,23.5a2.254,2.254,0,0,0,2.845-1.437c.011-.036.022-.072.032-.108a2.518,2.518,0,0,0,.039-1.3l3.955-2.141a2.269,2.269,0,0,0,.863.557l.144.047a2.175,2.175,0,0,0,1.943-.426l3.579,4.237a2.4,2.4,0,0,0-.312.635,2.434,2.434,0,0,0,1.5,3,2.221,2.221,0,0,0,2.825-1.372c.013-.038.025-.077.037-.116a2.522,2.522,0,0,0-.045-1.581l7.189-4.709a2.266,2.266,0,0,0,3.921-.851A2.513,2.513,0,0,0,28.626,14.836ZM3.519,21.609a1.2,1.2,0,0,1-1.485.822l-.06-.019a1.314,1.314,0,0,1-.81-1.617,1.2,1.2,0,0,1,1.485-.822l.06.019A1.316,1.316,0,0,1,3.519,21.609ZM18.05,24.7a1.179,1.179,0,0,1-1.443.836l-.049-.014h0a1.3,1.3,0,0,1-.905-1.1,1.26,1.26,0,0,1,.626-1.261,1.207,1.207,0,0,1,1.376.158A1.328,1.328,0,0,1,18.05,24.7Zm11.006-7.175a1.173,1.173,0,0,1-1.431.839l-.061-.017h0a1.3,1.3,0,0,1-.9-1.1,1.258,1.258,0,0,1,.626-1.261,1.206,1.206,0,0,1,1.376.158A1.324,1.324,0,0,1,29.056,17.522Z"/><path class="a" d="M9.627,3.138h0a.732.732,0,0,0,.535.24.692.692,0,0,0,.52-.211.8.8,0,0,0,.231-.54L10.926.778a.764.764,0,0,0-.244-.553A.745.745,0,0,0,10.136,0,.716.716,0,0,0,9.59.225a.783.783,0,0,0-.224.533L9.4,2.612A.67.67,0,0,0,9.627,3.138Z"/><path class="a" d="M16.647,9.132a.67.67,0,0,0-.217.513.636.636,0,0,0,.211.507h0a.821.821,0,0,0,.548.256l1.831.007a.809.809,0,0,0,.77-.77.733.733,0,0,0-.225-.532.79.79,0,0,0-.545-.238l-1.842.019A.771.771,0,0,0,16.647,9.132Z"/><path class="a" d="M14.59,5.2a.77.77,0,0,0,.531.236.688.688,0,0,0,.533-.212l1.3-1.3a.776.776,0,0,0,.231-.553V3.32a.747.747,0,0,0-.77-.722.788.788,0,0,0-.559.225l-1.3,1.3a.7.7,0,0,0-.2.514.8.8,0,0,0,.238.558Z"/><path class="a" d="M1.271,10.425l1.85-.011a.7.7,0,0,0,.533-.224l.025-.026a.744.744,0,0,0-.025-1.052.7.7,0,0,0-.533-.224L1.266,8.856a.764.764,0,0,0-.532.224.864.864,0,0,0-.25.559.824.824,0,0,0,.237.546A.815.815,0,0,0,1.271,10.425Z"/><path class="a" d="M5.525,10.766a4.578,4.578,0,0,0,1.151,2.1l.046.045h0c.1.1.2.11.285,0l.732-.731a.28.28,0,0,0,.1-.219.228.228,0,0,0-.064-.154A3.2,3.2,0,0,1,7.887,7.4a3.107,3.107,0,0,1,2.259-.949,3.057,3.057,0,0,1,2.256.919,3.114,3.114,0,0,1,.937,2.259,3.053,3.053,0,0,1-.912,2.259l-.154.154a.169.169,0,0,0-.012.27l.783.784a.231.231,0,0,0,.167.064.219.219,0,0,0,.16-.07l.128-.128a4.725,4.725,0,0,0-5.142-7.7A4.567,4.567,0,0,0,6.792,6.3a4.633,4.633,0,0,0-1.22,2.079A4.733,4.733,0,0,0,5.525,10.766Z"/><path class="a" d="M4.647,5.23h0a.657.657,0,0,0,.526.206A.766.766,0,0,0,5.708,5.2a.8.8,0,0,0,.237-.533.685.685,0,0,0-.211-.532l-1.31-1.31a.774.774,0,0,0-1.091,0,.758.758,0,0,0-.225.546.709.709,0,0,0,.225.546Z"/></g></svg>