<svg xmlns="http://www.w3.org/2000/svg" width="28.676" height="24" viewBox="0 0 28.676 24"><defs><style>.a{fill:#fff;}</style></defs><g transform="translate(1.844 2.02)"><path class="a" d="M2.784,16.837a.9.9,0,0,0,.294.678.887.887,0,0,0,.678.282H14.394a.88.88,0,0,0,.666-.282.984.984,0,0,0,.011-1.344.894.894,0,0,0-.666-.271H3.755a.964.964,0,0,0-.689.271A.88.88,0,0,0,2.784,16.837Zm.373,6.946a.887.887,0,0,0,.282.678.887.887,0,0,0,.678.282h10.65a.964.964,0,0,0,.971-.96.88.88,0,0,0-.282-.666.964.964,0,0,0-.689-.271H4.128a.919.919,0,0,0-.678.271A.89.89,0,0,0,3.157,23.783Zm1.547-3.5a.863.863,0,0,0,.282.666.99.99,0,0,0,.712.26H16.314a.93.93,0,0,0,.666-.26.885.885,0,0,0,.26-.666.965.965,0,0,0-.26-.689.894.894,0,0,0-.666-.271H5.7a1,1,0,0,0-.712.271A.936.936,0,0,0,4.7,20.282ZM7.448,13.11a.964.964,0,0,1,.971-.971h2.293a.856.856,0,0,1,.655.282,1.029,1.029,0,0,1,0,1.367.856.856,0,0,1-.655.282H8.42a.964.964,0,0,1-.971-.96Zm3.23-7.816a1.023,1.023,0,0,1,.271-.689,1.079,1.079,0,0,1,.712-.271.949.949,0,0,1,.666.271l1.6,1.66a.877.877,0,0,1,.271.666.926.926,0,0,1-.949.949.877.877,0,0,1-.666-.271L10.95,6A1.01,1.01,0,0,1,10.679,5.295Zm2.88,7.68V12.9a5.684,5.684,0,0,1,.836-2.857A5.886,5.886,0,0,1,16.54,7.972a5.77,5.77,0,0,1,2.9-.757,5.7,5.7,0,0,1,2.281.474A5.9,5.9,0,0,1,23.6,8.954a5.9,5.9,0,0,1,.937,7.093,5.872,5.872,0,0,1-5.06,2.936h-.226a.272.272,0,0,1-.2-.079.283.283,0,0,1-.09-.2V17.323c0-.147.079-.226.248-.226h.271a3.8,3.8,0,0,0,2.79-1.186A3.873,3.873,0,0,0,23.43,13.1a3.807,3.807,0,0,0-1.175-2.79,3.87,3.87,0,0,0-2.824-1.152,3.978,3.978,0,0,0-3.976,3.784.283.283,0,0,1-.079.192.344.344,0,0,1-.282.1H13.807C13.638,13.246,13.559,13.156,13.559,12.975Zm4.936,11.159V21.886a.926.926,0,0,1,.949-.949.945.945,0,0,1,.689.271.919.919,0,0,1,.271.678v2.248a.954.954,0,0,1-.282.7.922.922,0,0,1-.678.282.887.887,0,0,1-.678-.282A.972.972,0,0,1,18.494,24.133Zm0-19.742V2.076a.887.887,0,0,1,.282-.678.948.948,0,0,1,.678-.282.922.922,0,0,1,.678.282.922.922,0,0,1,.282.678v2.3a.856.856,0,0,1-.282.655,1,1,0,0,1-.678.26.957.957,0,0,1-.678-.26A.816.816,0,0,1,18.494,4.391Zm6.223,14.886a.8.8,0,0,1,.26-.632.835.835,0,0,1,.644-.26.957.957,0,0,1,.678.26l1.638,1.6a.983.983,0,0,1,.271.689.912.912,0,0,1-.271.666,1.006,1.006,0,0,1-1.355,0l-1.6-1.615A1.021,1.021,0,0,1,24.717,19.277Zm0-12.344a.837.837,0,0,1,.26-.666l1.6-1.66a.969.969,0,0,1,.666-.271.887.887,0,0,1,.678.282.922.922,0,0,1,.282.678.954.954,0,0,1-.271.7L26.3,7.61a1,1,0,0,1-.678.271.862.862,0,0,1-.644-.271A.91.91,0,0,1,24.717,6.932ZM27.27,13.11a.991.991,0,0,1,.282-.7.873.873,0,0,1,.632-.271h2.293a.977.977,0,0,1,.689.294.929.929,0,0,1,0,1.355.965.965,0,0,1-.689.282H28.184a.856.856,0,0,1-.655-.282A.957.957,0,0,1,27.27,13.11Z" transform="translate(-4.628 -3.136)"/></g></svg>