<svg xmlns="http://www.w3.org/2000/svg" xmlns:xlink="http://www.w3.org/1999/xlink" width="23.5" height="23.52" viewBox="0 0 23.5 23.52"><defs><style>.a{fill:none;}.b{clip-path:url(#a);}.c{isolation:isolate;}.d{clip-path:url(#b);}.e{fill:#fff;}</style><clipPath id="a"><rect class="a" width="23.5" height="23.52"/></clipPath><clipPath id="b"><rect class="a" width="18.8" height="18.82" transform="translate(0 4.7)"/></clipPath></defs><g transform="translate(11.75 11.76)"><g class="b" transform="translate(-11.75 -11.76)"><g class="c"><g class="d"><path class="e" d="M2.4,4.7H0V21.2a2.4,2.4,0,0,0,2.4,2.4H18.8V21.2H2.4Z"/></g></g><path class="e" d="M21.2,0H7.1A2.4,2.4,0,0,0,4.7,2.4V16.5a2.4,2.4,0,0,0,2.4,2.4H21.2a2.4,2.4,0,0,0,2.4-2.4V2.4A2.4,2.4,0,0,0,21.2,0M15.3,10.6v4.7H12.9V10.6H8.2V8.2h4.7V3.5h2.4V8.2H20v2.4Z"/></g></g></svg>