<svg xmlns="http://www.w3.org/2000/svg" width="78.967" height="16.406" viewBox="0 0 78.967 16.406"><defs><style>.a{fill:#00445d;}</style></defs><g transform="translate(39.483 8.203)"><g transform="translate(-39.483 -8.203)"><path class="a" d="M14.819,0A4.816,4.816,0,0,0,11.01,1.864L0,16.093H2.177a3.219,3.219,0,0,0,2.547-1.251l1.482-1.922h8.209l.151,1.563a1.771,1.771,0,0,0,1.76,1.609h1.459L16.232,0ZM8.128,10.443,13.5,3.5l.672,6.947Z" transform="translate(0 0)"/><path class="a" d="M172.32,46.351h6.842l-1.135,1.494a2.64,2.64,0,0,1-2.107,1.042H167.7l.1-.475a8.95,8.95,0,0,1,2.072-3.346l4.214-5.43h-5.279l1.181-1.517a2.64,2.64,0,0,1,2.084-1.019h7.41Z" transform="translate(-148.284 -32.805)"/><path class="a" d="M273.6,6.831,274.793,5.3A2.64,2.64,0,0,1,276.865,4.3h.417l.463-2.2a2.663,2.663,0,0,1,2.6-2.1h1.135l-.891,4.3H285.5l-1.193,1.517a2.64,2.64,0,0,1-2.084,1.019h-2.177l-1.088,5.21c-.3,1.586.845,1.517,1.644,1.517h2.234l-1.123,1.494a2.64,2.64,0,0,1-2.107,1.042h-1.748c-1.876,0-2.767-1.389-2.292-3.67l1.181-5.592Z" transform="translate(-241.923 0)"/><path class="a" d="M376.042,44.3a2.64,2.64,0,0,0,2.107-1.042l1.088-1.482h-7.444c.926-1.887,2.651-2.142,4.434-2.142h.741a2.64,2.64,0,0,0,2.084-1.03l1.169-1.505h-4.191c-5.65,0-7.155,3.508-7.664,5.928-.764,3.577.787,5.858,4.967,5.858h1.737a2.64,2.64,0,0,0,2.119-1.065l1.088-1.47h-4.2c-2.512,0-2.987-.961-2.929-2.049Z" transform="translate(-325.552 -32.805)"/><path class="a" d="M484.754,46.451l-1.088,1.47a2.64,2.64,0,0,1-2.119,1.065h-1.714c-4.18,0-5.731-2.281-4.967-5.858.509-2.42,2.014-5.928,7.664-5.928h4.18l-1.181,1.528a2.617,2.617,0,0,1-2.1,1h-.718c-2.13,0-4.122.347-4.851,3.4-.336,1.4-.764,3.323,2.709,3.323Z" transform="translate(-419.722 -32.893)"/><path class="a" d="M573.7,16.093l2.906-13.986A2.64,2.64,0,0,1,579.188,0h1.088l-.891,4.3h2.663c2.883,0,4.793.741,4.029,4.318l-1.667,7.792h0a2.489,2.489,0,0,1-2.431-3l.949-4.434c.243-1.181.255-2.142-1.621-2.142h-2.466L577.324,14a2.64,2.64,0,0,1-2.582,2.1Z" transform="translate(-507.279 0)"/></g></g></svg>