<svg xmlns="http://www.w3.org/2000/svg" width="21" height="30" viewBox="0 0 21 30"><defs><style>.a{fill:#c6c6c6;}.b{fill:#333132;}</style></defs><g transform="translate(-668 -402.921)"><path class="a" d="M18.428,9.227c.12,3.565-2.713,9.547-8.279,9.547S1.8,12.8,1.8,9.227,18.309,5.661,18.428,9.227Z" transform="translate(668.349 406.273)"/><path class="b" d="M13.5,31.5A1.5,1.5,0,0,0,15,33h6a1.5,1.5,0,0,0,1.5-1.5V30h-9ZM18,3a10.5,10.5,0,0,0-6,19.11V25.5A1.5,1.5,0,0,0,13.5,27h9A1.5,1.5,0,0,0,24,25.5V22.11A10.5,10.5,0,0,0,18,3Zm4.275,16.65L21,20.55V24H15V20.55l-1.275-.9a7.5,7.5,0,1,1,8.55,0Z" transform="translate(660.5 399.921)"/></g></svg>