<svg xmlns="http://www.w3.org/2000/svg" width="48" height="48" viewBox="0 0 48 48"><defs><style>.a{fill:none;}.b{fill:#c6c6c6;}</style></defs><g transform="translate(-492 -1416)"><rect class="a" width="48" height="48" transform="translate(540 1464) rotate(180)"/><path class="b" d="M2779.5,8396a12.5,12.5,0,1,1,8.839-3.661A12.421,12.421,0,0,1,2779.5,8396Zm-1.237-6.055v2.148h2.148v-2.148Zm1.074-12.891a3.889,3.889,0,0,1,2.621.729,1.807,1.807,0,0,1,.6,1.419,3.38,3.38,0,0,1-1.574,3.021l-.04.035-.191.167a8.48,8.48,0,0,0-1.648,1.828,5.47,5.47,0,0,0-.844,3.006v.537h2.148v-.537a3.424,3.424,0,0,1,1.588-3.092l.152-.131a6.2,6.2,0,0,0,2.557-4.834,4.124,4.124,0,0,0-1.268-3.03,5.943,5.943,0,0,0-4.1-1.267,5.558,5.558,0,0,0-4.039,1.417,4.628,4.628,0,0,0-1.268,2.752l2.148.275a2.575,2.575,0,0,1,.667-1.481A3.173,3.173,0,0,1,2779.337,8377.055Z" transform="translate(-2263 -6943)"/></g></svg>