<svg xmlns="http://www.w3.org/2000/svg" width="46" height="46" viewBox="0 0 46 46"><defs><style>.a{fill:#005570;}.b{fill:#fff;}</style></defs><g transform="translate(-127.001 -1067)"><circle class="a" cx="23" cy="23" r="23" transform="translate(127.001 1067)"/><path class="b" d="M4.779,11.842a3.2,3.2,0,1,0-3.186-3.2A3.194,3.194,0,0,0,4.779,11.842Zm22.3,0a3.2,3.2,0,1,0-3.186-3.2A3.194,3.194,0,0,0,27.078,11.842Zm1.593,1.6H25.485a3.17,3.17,0,0,0-2.245.929,7.308,7.308,0,0,1,3.738,5.465h3.285a1.594,1.594,0,0,0,1.593-1.6v-1.6A3.194,3.194,0,0,0,28.671,13.441Zm-12.743,0a5.6,5.6,0,1,0-5.575-5.6A5.582,5.582,0,0,0,15.928,13.441Zm3.823,1.6h-.413a7.672,7.672,0,0,1-6.819,0h-.413a5.746,5.746,0,0,0-5.734,5.755v1.439a2.394,2.394,0,0,0,2.389,2.4H23.1a2.394,2.394,0,0,0,2.389-2.4V20.795A5.746,5.746,0,0,0,19.751,15.039ZM8.616,14.37a3.17,3.17,0,0,0-2.245-.929H3.186A3.194,3.194,0,0,0,0,16.638v1.6a1.594,1.594,0,0,0,1.593,1.6h3.28A7.326,7.326,0,0,1,8.616,14.37Z" transform="translate(134.001 1076.75)"/></g></svg>