<svg xmlns="http://www.w3.org/2000/svg" width="26.351" height="26.283" viewBox="0 0 26.351 26.283"><defs><style>.a,.b,.c{fill:#333132;}.b,.c{stroke:#333132;stroke-miterlimit:10;}.b{stroke-width:0.944px;}.c{stroke-width:0.566px;}</style></defs><g transform="translate(0.298)"><g transform="translate(16.637 0)"><path class="a" d="M178.256,24.528a5.181,5.181,0,0,0,1.387.981.638.638,0,0,0,.72-.288c.2-.262.183-.55-.026-.654h0a4.461,4.461,0,0,1-1.243-.877,4.579,4.579,0,0,1-.89-1.256c-.1-.209-.393-.209-.654-.026l-.1.092a.592.592,0,0,0-.183.628A5.285,5.285,0,0,0,178.256,24.528Z" transform="translate(-171.085 -22.274)"/><path class="a" d="M130.293,31.2a9.477,9.477,0,0,0,2.538,5.076,9.3,9.3,0,0,0,5.063,2.538.748.748,0,0,0,.693-.419c.144-.275.065-.536-.17-.576h0a8.428,8.428,0,0,1-7.13-7.13c-.039-.235-.3-.314-.576-.17a.863.863,0,0,0-.2.144A.667.667,0,0,0,130.293,31.2Z" transform="translate(-130.292 -29.378)"/><path class="a" d="M156.116,32.827a6.908,6.908,0,0,0,2.826,1.7.713.713,0,0,0,.706-.353c.17-.262.118-.55-.1-.615a6.371,6.371,0,0,1-2.59-1.57,6.476,6.476,0,0,1-1.57-2.617c-.065-.222-.353-.262-.615-.1l-.157.118a.645.645,0,0,0-.209.589A7.091,7.091,0,0,0,156.116,32.827Z" transform="translate(-151.235 -28.271)"/></g><circle class="b" cx="2.316" cy="2.316" r="2.316" transform="translate(12.013 5.057)"/><path class="c" d="M17.385,90.527a.772.772,0,0,1-.17.6l-.026.026L18.877,93.3h3.232a.772.772,0,1,1,0,1.531H18.471a.772.772,0,0,1-.628-.327l-1.688-2.133-2.643,3.768,2.12,1.805a.772.772,0,0,1,.236.824L14,104.578a.772.772,0,0,1-.733.536l-.236-.039a.772.772,0,0,1-.5-.968l1.727-5.325-2.316-1.976L10.752,95.8,9.705,98.05a.772.772,0,0,1-.693.445H4.106a.772.772,0,1,1,0-1.531H8.528l1.217-2.643a.758.758,0,0,1,.17-.235h.013l3.4-3.99-1.753-.785L7.7,91.6a.772.772,0,0,1-.772-1.321l4.226-2.486a.772.772,0,0,1,.707-.039l2.512,1.125A22.584,22.584,0,0,1,17.385,90.527Z" transform="translate(-3.233 -79.115)"/></g></svg>