<svg xmlns="http://www.w3.org/2000/svg" xmlns:xlink="http://www.w3.org/1999/xlink" width="26.005" height="24.245" viewBox="0 0 26.005 24.245"><defs><style>.a{fill:none;}.b{opacity:0.5;}.c{clip-path:url(#a);}.d{fill:#005570;}</style><clipPath id="a"><rect class="a" width="26.005" height="24.245"/></clipPath></defs><g class="b"><g class="c" transform="translate(0 0)"><path class="d" d="M136.167,6.295l-.66-.076a6.9,6.9,0,0,0-.387-.956l.4-.508a1.259,1.259,0,0,0-.091-1.661l-1.206-1.206a1.244,1.244,0,0,0-.887-.364,1.259,1.259,0,0,0-.781.273l-.485.387a6.9,6.9,0,0,0-1.031-.44l-.076-.637A1.251,1.251,0,0,0,129.728,0h-1.714a1.251,1.251,0,0,0-1.244,1.107l-.076.637a6.871,6.871,0,0,0-1.077.455l-.508-.4a1.251,1.251,0,0,0-1.661.1l-1.206,1.2a1.251,1.251,0,0,0-.1,1.661l.447.569a6.759,6.759,0,0,0-.379.963l-.705.083A1.251,1.251,0,0,0,120.4,7.614V9.32a1.251,1.251,0,0,0,1.107,1.244l.774.091a7.052,7.052,0,0,0,.349.834l-.485.614a1.259,1.259,0,0,0,.1,1.661l1.206,1.206a1.244,1.244,0,0,0,.88.364h0a1.259,1.259,0,0,0,.781-.273l.607-.478a6.917,6.917,0,0,0,.895.379l.091.789a1.251,1.251,0,0,0,1.244,1.107h1.706a1.251,1.251,0,0,0,1.244-1.107l.091-.736a7,7,0,0,0,.993-.4l.584.463a1.251,1.251,0,0,0,1.661-.1l1.206-1.206a1.251,1.251,0,0,0,.1-1.661l-.447-.569a6.836,6.836,0,0,0,.41-.971l.675-.076a1.251,1.251,0,0,0,1.107-1.244V7.538a1.251,1.251,0,0,0-1.107-1.244m-7.288,4.368a2.3,2.3,0,1,1,2.3-2.3,2.3,2.3,0,0,1-2.3,2.3" transform="translate(-111.269 0)"/><path class="d" d="M9.931,92.412a17.04,17.04,0,0,0,3.041-.265,1.767,1.767,0,0,1-.88-.478L10.932,90.5q-.485.03-1,.03c-4.179,0-7.3-1.653-7.3-3.125,0-1.282,2.351-2.707,6.09-3.079l.167-.015v-.394a1.775,1.775,0,0,1,.72-1.418C4.539,82.583.8,84.714.8,87.452s3.906,4.96,9.138,4.96" transform="translate(-0.739 -76.243)"/><path class="d" d="M9.293,204.2c3.633,0,6.742-1.069,8.221-2.738H16.459a1.775,1.775,0,0,1-1.236-.508,11.7,11.7,0,0,1-5.976,1.4c-3.906,0-6.75-1.38-7.2-2.707A.933.933,0,0,0,.3,200.3c.872,2.3,4.543,3.906,8.994,3.906" transform="translate(-0.238 -183.993)"/><path class="d" d="M17.233,250.9a.933.933,0,0,0-1.191.554c-.455,1.327-3.307,2.753-7.25,2.753s-6.75-1.38-7.2-2.707a.933.933,0,1,0-1.744.645c.872,2.3,4.543,3.906,8.994,3.906s8.122-1.608,8.949-3.951a.956.956,0,0,0-.554-1.191" transform="translate(0.224 -231.8)"/></g></g></svg>