<svg xmlns="http://www.w3.org/2000/svg" width="50" height="50" viewBox="0 0 50 50"><defs><style>.a{fill:#333132;}.b{fill:#f7f7f7;}</style></defs><g transform="translate(-806 -412)"><path class="a" d="M25,.563a25,25,0,1,0,25,25A25,25,0,0,0,25,.563Z" transform="translate(806 411.438)"/><path class="b" d="M24.895,8.3H22.341V5.745a.64.64,0,0,0-.638-.638H20.426a.64.64,0,0,0-.638.638V8.3H17.235a.64.64,0,0,0-.638.638v1.277a.64.64,0,0,0,.638.638h2.553V13.4a.64.64,0,0,0,.638.638H21.7a.64.64,0,0,0,.638-.638V10.852h2.553a.64.64,0,0,0,.638-.638V8.937A.64.64,0,0,0,24.895,8.3ZM8.937,10.213A5.107,5.107,0,1,0,3.83,5.107,5.106,5.106,0,0,0,8.937,10.213Zm3.575,1.277h-.666a6.945,6.945,0,0,1-5.817,0H5.362A5.363,5.363,0,0,0,0,16.852v1.66a1.915,1.915,0,0,0,1.915,1.915H15.958a1.915,1.915,0,0,0,1.915-1.915v-1.66A5.363,5.363,0,0,0,12.511,11.49Z" transform="translate(819.117 425.918)"/></g></svg>