<svg xmlns="http://www.w3.org/2000/svg" xmlns:xlink="http://www.w3.org/1999/xlink" width="28" height="23.42" viewBox="0 0 28 23.42"><defs><style>.a{fill:none;}.b{clip-path:url(#a);}.c{fill:#333132;}</style><clipPath id="a"><rect class="a" width="28" height="23.42"/></clipPath></defs><g transform="translate(14 11.71)"><g class="b" transform="translate(-14 -11.71)"><path class="c" d="M11.6,16.5a.9.9,0,0,0,.7-.3,1,1,0,0,0,0-1.3.9.9,0,0,0-.7-.3H1a1,1,0,0,0-.7.3.967.967,0,0,0,0,1.4.9.9,0,0,0,.7.3Z"/><path class="c" d="M12,21.5H1.3a.9.9,0,0,0-.7.3.9.9,0,0,0,0,1.3.9.9,0,0,0,.7.3H12a1,1,0,0,0,1-1h0a.9.9,0,0,0-.3-.7,1,1,0,0,0-.7-.3"/><path class="c" d="M13.5,18H2.9a1,1,0,0,0-.7.3.9.9,0,0,0-.3.7h0a.9.9,0,0,0,.3.7,1,1,0,0,0,.7.3H13.5a1.025,1.025,0,0,0,1-1,1,1,0,0,0-.3-.7.9.9,0,0,0-.7-.3"/><path class="c" d="M27.5,11.5a.9.9,0,0,0-1,.1,6.4,6.4,0,0,1-4.3,1.5c-6.6-.6-9-7.3-5.8-11.6A.9.9,0,0,0,15.6,0,11.3,11.3,0,0,0,5.4,12.4l.2.2H7a.2.2,0,0,0,.2-.2,9.3,9.3,0,0,1,0-2,9.5,9.5,0,0,1,6.7-8.2A9.042,9.042,0,0,0,25.7,14.1a9.5,9.5,0,0,1-9.4,6.7.2.2,0,0,0-.2.2v1.5a.2.2,0,0,0,.2.2A11.4,11.4,0,0,0,28,12.4a.9.9,0,0,0-.5-.9"/></g></g></svg>