<svg xmlns="http://www.w3.org/2000/svg" width="39" height="39" viewBox="0 0 39 39"><defs><style>.a{fill:none;}.b{fill:#e0e0e0;}.c{fill:#005570;}.d,.e{stroke:none;}.e{fill:#005570;}</style></defs><g transform="translate(-1183 -1547)"><rect class="a" width="39" height="39" transform="translate(1183 1547)"/><g class="b" transform="translate(1184.64 1548.64)"><path class="d" d="M 18.04329299926758 35.08658218383789 C 13.49086284637451 35.08658218383789 9.210923194885254 33.31377410888672 5.991872787475586 30.09472274780273 C 2.772813081741333 26.87567329406738 1.000002980232239 22.59572219848633 1.000002980232239 18.04329299926758 C 1.000002980232239 13.49086284637451 2.772813081741333 9.210923194885254 5.991872787475586 5.991872787475586 C 9.210923194885254 2.772813081741333 13.49086284637451 1.000002980232239 18.04329299926758 1.000002980232239 C 22.59572219848633 1.000002980232239 26.87567329406738 2.772813081741333 30.09472274780273 5.991872787475586 C 33.31377410888672 9.210923194885254 35.08658218383789 13.49086284637451 35.08658218383789 18.04329299926758 C 35.08658218383789 22.59572219848633 33.31377410888672 26.87567329406738 30.09472274780273 30.09472274780273 C 26.87567329406738 33.31377410888672 22.59572219848633 35.08658218383789 18.04329299926758 35.08658218383789 Z"/><path class="e" d="M 18.04329299926758 2.000003814697266 C 13.75797271728516 2.000003814697266 9.729152679443359 3.668792724609375 6.698972702026367 6.698972702026367 C 3.668792724609375 9.729152679443359 2.000003814697266 13.75797271728516 2.000003814697266 18.04329299926758 C 2.000003814697266 22.32861328125 3.668792724609375 26.3574333190918 6.698972702026367 29.38761329650879 C 9.729152679443359 32.41779327392578 13.75797271728516 34.08658218383789 18.04329299926758 34.08658218383789 C 22.32861328125 34.08658218383789 26.35744285583496 32.41779327392578 29.38761329650879 29.38761329650879 C 32.41779327392578 26.35744285583496 34.08658218383789 22.32861328125 34.08658218383789 18.04329299926758 C 34.08658218383789 13.75797271728516 32.41779327392578 9.729152679443359 29.38761329650879 6.698972702026367 C 26.3574333190918 3.668792724609375 22.32861328125 2.000003814697266 18.04329299926758 2.000003814697266 M 18.04329299926758 3.814697265625e-06 C 28.00833320617676 3.814697265625e-06 36.08658218383789 8.078262329101562 36.08658218383789 18.04329299926758 C 36.08658218383789 28.00833320617676 28.00833320617676 36.08658218383789 18.04329299926758 36.08658218383789 C 8.078262329101562 36.08658218383789 3.814697265625e-06 28.00833320617676 3.814697265625e-06 18.04329299926758 C 3.814697265625e-06 8.078262329101562 8.078262329101562 3.814697265625e-06 18.04329299926758 3.814697265625e-06 Z"/></g><g transform="translate(1192.38 1557.411)"><path class="c" d="M19.794,16.5a3.3,3.3,0,1,1-3.3-3.3A3.3,3.3,0,0,1,19.794,16.5Z" transform="translate(-6.194 -6.194)"/><path class="c" d="M10.212,3,8.327,5.061H5.061A2.067,2.067,0,0,0,3,7.121V19.485a2.067,2.067,0,0,0,2.061,2.061H21.546a2.067,2.067,0,0,0,2.061-2.061V7.121a2.067,2.067,0,0,0-2.061-2.061H18.28L16.394,3ZM13.3,18.455A5.152,5.152,0,1,1,18.455,13.3,5.153,5.153,0,0,1,13.3,18.455Z" transform="translate(-3 -3)"/></g></g></svg>