<svg xmlns="http://www.w3.org/2000/svg" width="48" height="48" viewBox="0 0 48 48"><defs><style>.a{fill:none;}.b{fill:#333132;}</style></defs><g transform="translate(-444 -1416)"><rect class="a" width="48" height="48" transform="translate(492 1464) rotate(180)"/><g transform="translate(454.625 1426.625)"><path class="b" d="M16.552,12.108a1.449,1.449,0,1,1,1.441,1.406A1.408,1.408,0,0,1,16.552,12.108Zm.1,2.51h2.686V24.75H16.65Z" transform="translate(-4.625 -4.46)"/><path class="b" d="M13.375,4.721a8.65,8.65,0,1,1-6.12,2.534,8.6,8.6,0,0,1,6.12-2.534m0-1.346a10,10,0,1,0,10,10,10,10,0,0,0-10-10Z"/></g></g></svg>