<svg xmlns="http://www.w3.org/2000/svg" width="17.875" height="26" viewBox="0 0 17.875 26"><defs><style>.a{fill:#fff;}</style></defs><path class="a" d="M4.878,23.072a1.626,1.626,0,0,0,.272.9l.868,1.3A1.624,1.624,0,0,0,7.371,26H10.5a1.624,1.624,0,0,0,1.353-.725l.868-1.3a1.624,1.624,0,0,0,.272-.9l0-1.947H4.875ZM0,8.937a8.887,8.887,0,0,0,2.212,5.879A14.593,14.593,0,0,1,4.863,19.46c0,.013,0,.026.006.04h8.137c0-.013,0-.026.006-.04a14.593,14.593,0,0,1,2.651-4.644A8.935,8.935,0,1,0,0,8.937ZM8.937,4.875A4.067,4.067,0,0,0,4.875,8.937a.812.812,0,1,1-1.625,0A5.694,5.694,0,0,1,8.937,3.25a.812.812,0,1,1,0,1.625Z" transform="translate(0 0)"/></svg>