<?xml version="1.0" encoding="utf-8"?>
<svg width="13.408" height="7.832" viewBox="0 0 13.408 7.832" xmlns="http://www.w3.org/2000/svg">
  <defs>
    <style>.a{fill:#333132;}</style>
  </defs>
  <path class="a" d="M 12.011 0.237 C 11.35 0.937 10.686 1.637 10.025 2.326 C 8.966 3.438 7.909 4.55 6.853 5.662 C 6.611 5.921 6.365 6.175 6.123 6.433 L 7.284 6.433 C 6.623 5.733 5.959 5.033 5.298 4.344 C 4.239 3.232 3.182 2.12 2.126 1.008 C 1.884 0.749 1.638 0.495 1.396 0.237 C 0.944 -0.205 0.183 0.008 0.026 0.62 C -0.045 0.898 0.034 1.193 0.235 1.398 C 0.896 2.098 1.56 2.798 2.221 3.487 C 3.28 4.599 4.337 5.711 5.393 6.823 C 5.635 7.082 5.881 7.336 6.123 7.594 C 6.446 7.91 6.961 7.91 7.284 7.594 C 7.945 6.894 8.609 6.194 9.27 5.505 C 10.329 4.393 11.386 3.281 12.442 2.169 C 12.684 1.91 12.93 1.656 13.172 1.398 C 13.614 0.946 13.401 0.185 12.789 0.029 C 12.511 -0.043 12.216 0.036 12.011 0.237 Z" transform="matrix(-1, 0, 0, -1, 13.407068, 7.833343)"/>
</svg>