<svg xmlns="http://www.w3.org/2000/svg" width="24.993" height="25" viewBox="0 0 24.993 25"><defs><style>.a{fill:#333132;}</style></defs><path class="a" d="M27.43,17a3.216,3.216,0,0,1,2.063-3,12.748,12.748,0,0,0-1.543-3.716,3.259,3.259,0,0,1-1.308.28,3.209,3.209,0,0,1-2.935-4.517A12.71,12.71,0,0,0,20,4.5a3.213,3.213,0,0,1-6,0A12.748,12.748,0,0,0,10.28,6.043,3.209,3.209,0,0,1,7.344,10.56a3.153,3.153,0,0,1-1.308-.28A13.03,13.03,0,0,0,4.5,14a3.215,3.215,0,0,1,.007,6A12.748,12.748,0,0,0,6.049,23.72a3.21,3.21,0,0,1,4.237,4.237A12.823,12.823,0,0,0,14,29.5a3.208,3.208,0,0,1,5.988,0,12.748,12.748,0,0,0,3.716-1.543,3.214,3.214,0,0,1,4.237-4.237A12.823,12.823,0,0,0,29.487,20,3.231,3.231,0,0,1,27.43,17ZM17.055,22.2a5.207,5.207,0,1,1,5.207-5.207A5.206,5.206,0,0,1,17.055,22.2Z" transform="translate(-4.5 -4.5)"/></svg>