<svg xmlns="http://www.w3.org/2000/svg" width="46" height="46" viewBox="0 0 46 46"><defs><style>.a{fill:#005570;}.b{fill:#fff;}</style></defs><g transform="translate(-127.001 -979)"><circle class="a" cx="23" cy="23" r="23" transform="translate(127.001 979)"/><path class="b" d="M25.708.558a2.254,2.254,0,0,0-2.261,2.356,2.524,2.524,0,0,0,.393,1.295l-5.452,6.8a2.261,2.261,0,0,0-.937-.227,2.17,2.17,0,0,0-1.623.684L10.958,8.457a2.485,2.485,0,0,0-.008-.431,2.524,2.524,0,0,0-.831-1.683,2.333,2.333,0,0,0-1.687-.6,2.267,2.267,0,0,0-2.046,2.5,2.522,2.522,0,0,0,.477,1.285l-3.049,3.18a2.265,2.265,0,0,0-3.5,1.987,2.494,2.494,0,0,0,2.409,2.444A2.254,2.254,0,0,0,4.982,14.78a2.517,2.517,0,0,0-.365-1.249l3.1-3.259a2.266,2.266,0,0,0,.993.263l.151,0a2.175,2.175,0,0,0,1.717-1.005l4.713,2.924a2.41,2.41,0,0,0-.1.7,2.435,2.435,0,0,0,2.352,2.386,2.221,2.221,0,0,0,2.262-2.3,2.519,2.519,0,0,0-.531-1.49l5.382-6.7a2.266,2.266,0,0,0,3.467-2.021A2.514,2.514,0,0,0,25.708.558ZM2.7,16a1.315,1.315,0,0,1-1.27-1.288,1.2,1.2,0,0,1,1.221-1.241,1.315,1.315,0,0,1,1.27,1.288A1.2,1.2,0,0,1,2.7,16Zm14.827-1.552a1.3,1.3,0,0,1-1.2-.763,1.26,1.26,0,0,1,.206-1.393,1.207,1.207,0,0,1,1.358-.275,1.326,1.326,0,0,1,.805,1.188,1.179,1.179,0,0,1-1.165,1.243ZM25.778,4.223a1.3,1.3,0,0,1-1.2-.763,1.26,1.26,0,0,1,.206-1.393,1.207,1.207,0,0,1,1.358-.275,1.326,1.326,0,0,1,.805,1.188,1.173,1.173,0,0,1-1.165,1.242Z" transform="matrix(0.951, 0.309, -0.309, 0.951, 139.057, 994.643)"/><path class="b" d="M9.391,4.474a.822.822,0,0,1,.218-.554.867.867,0,0,1,.572-.218.763.763,0,0,1,.535.218l1.289,1.334a.7.7,0,0,1,.218.535.744.744,0,0,1-.762.762.7.7,0,0,1-.535-.218l-1.316-1.3A.812.812,0,0,1,9.391,4.474Zm2.314,6.172v-.064a4.568,4.568,0,0,1,.672-2.3A4.73,4.73,0,0,1,14.1,6.625a4.637,4.637,0,0,1,2.333-.608,4.578,4.578,0,0,1,1.833.381,4.742,4.742,0,0,1,1.507,1.017,4.743,4.743,0,0,1,.753,5.7,4.719,4.719,0,0,1-4.066,2.36H16.28a.219.219,0,0,1-.163-.064.227.227,0,0,1-.073-.163V14.14c0-.118.064-.182.2-.182h.218a3.054,3.054,0,0,0,2.242-.953,3.112,3.112,0,0,0,.935-2.26A3.06,3.06,0,0,0,18.694,8.5a3.11,3.11,0,0,0-2.269-.926,3.2,3.2,0,0,0-3.195,3.04.228.228,0,0,1-.064.154.276.276,0,0,1-.227.082H11.905C11.769,10.864,11.706,10.791,11.706,10.646Zm3.966-6.9V1.887a.713.713,0,0,1,.227-.545.762.762,0,0,1,.545-.227.741.741,0,0,1,.545.227.741.741,0,0,1,.227.545V3.739a.688.688,0,0,1-.227.526.8.8,0,0,1-.545.209.769.769,0,0,1-.545-.209A.656.656,0,0,1,15.672,3.748Zm5,11.962a.639.639,0,0,1,.209-.508.671.671,0,0,1,.517-.209.769.769,0,0,1,.545.209l1.316,1.289a.79.79,0,0,1,.218.554.733.733,0,0,1-.218.535.808.808,0,0,1-1.089,0l-1.289-1.3A.82.82,0,0,1,20.673,15.71Zm0-9.92a.672.672,0,0,1,.209-.535L22.17,3.921a.779.779,0,0,1,.535-.218.713.713,0,0,1,.545.227.741.741,0,0,1,.227.545.766.766,0,0,1-.218.563l-1.316,1.3a.8.8,0,0,1-.545.218.692.692,0,0,1-.517-.218A.732.732,0,0,1,20.673,5.79Zm2.051,4.965a.8.8,0,0,1,.227-.563.7.7,0,0,1,.508-.218H25.3a.785.785,0,0,1,.554.236.746.746,0,0,1,0,1.089.776.776,0,0,1-.554.227H23.459a.688.688,0,0,1-.526-.227A.769.769,0,0,1,22.724,10.755Z" transform="translate(125.623 1001.942) rotate(-45)"/></g></svg>