<svg xmlns="http://www.w3.org/2000/svg" width="46" height="46" viewBox="0 0 46 46"><defs><style>.a{fill:#005570;}.b{fill:#fff;}</style></defs><g transform="translate(-127.001 -1155)"><circle class="a" cx="23" cy="23" r="23" transform="translate(127.001 1155)"/><path class="b" d="M5.352,7.7H3V24.168A2.359,2.359,0,0,0,5.352,26.52H21.816V24.168H5.352ZM24.168,3H10.056A2.359,2.359,0,0,0,7.7,5.352V19.464a2.359,2.359,0,0,0,2.352,2.352H24.168a2.359,2.359,0,0,0,2.352-2.352V5.352A2.359,2.359,0,0,0,24.168,3ZM22.992,13.584h-4.7v4.7H15.936v-4.7h-4.7V11.232h4.7v-4.7h2.352v4.7h4.7Z" transform="translate(135.581 1163.48)"/></g></svg>