<svg xmlns="http://www.w3.org/2000/svg" width="46" height="46" viewBox="0 0 46 46"><defs><style>.a{fill:#005570;}.b{fill:#fff;}</style></defs><g transform="translate(-127.001 -891)"><circle class="a" cx="23" cy="23" r="23" transform="translate(127.001 891)"/><g transform="translate(145.307 898.226)"><path class="b" d="M6.6,1.928,2.571,9.422H6.6L3.914,16.916l9.4-9.367H7.944l4.03-5.62Z" transform="translate(-2.571 -1.928)"/></g><path class="b" d="M25.708.558a2.254,2.254,0,0,0-2.261,2.356,2.524,2.524,0,0,0,.393,1.295l-5.452,6.8a2.261,2.261,0,0,0-.937-.227,2.17,2.17,0,0,0-1.623.684L10.958,8.457a2.485,2.485,0,0,0-.008-.431,2.524,2.524,0,0,0-.831-1.683,2.333,2.333,0,0,0-1.687-.6,2.267,2.267,0,0,0-2.046,2.5,2.522,2.522,0,0,0,.477,1.285l-3.049,3.18a2.265,2.265,0,0,0-3.5,1.987,2.494,2.494,0,0,0,2.409,2.444A2.254,2.254,0,0,0,4.982,14.78a2.517,2.517,0,0,0-.365-1.249l3.1-3.259a2.266,2.266,0,0,0,.993.263l.151,0a2.175,2.175,0,0,0,1.717-1.005l4.713,2.924a2.41,2.41,0,0,0-.1.7,2.435,2.435,0,0,0,2.352,2.386,2.221,2.221,0,0,0,2.262-2.3,2.519,2.519,0,0,0-.531-1.49l5.382-6.7a2.266,2.266,0,0,0,3.467-2.021A2.514,2.514,0,0,0,25.708.558ZM2.7,16a1.315,1.315,0,0,1-1.27-1.288,1.2,1.2,0,0,1,1.221-1.241,1.315,1.315,0,0,1,1.27,1.288A1.2,1.2,0,0,1,2.7,16Zm14.827-1.552a1.3,1.3,0,0,1-1.2-.763,1.26,1.26,0,0,1,.206-1.393,1.207,1.207,0,0,1,1.358-.275,1.326,1.326,0,0,1,.805,1.188,1.179,1.179,0,0,1-1.165,1.243ZM25.778,4.223a1.3,1.3,0,0,1-1.2-.763,1.26,1.26,0,0,1,.206-1.393,1.207,1.207,0,0,1,1.358-.275,1.326,1.326,0,0,1,.805,1.188,1.173,1.173,0,0,1-1.165,1.242Z" transform="matrix(0.951, 0.309, -0.309, 0.951, 139.057, 906.643)"/></g></svg>