<svg xmlns="http://www.w3.org/2000/svg" width="365.477" height="75.929" viewBox="0 0 365.477 75.929"><defs><style>.a{fill:#fff;}</style></defs><g transform="translate(182.738 37.964)"><g transform="translate(-182.738 -37.964)"><path class="a" d="M68.588,0A22.291,22.291,0,0,0,50.959,8.627L0,74.482H10.074a14.9,14.9,0,0,0,11.79-5.789L28.721,59.8H66.712l.7,7.234a8.2,8.2,0,0,0,8.145,7.448h6.752L75.125,0ZM37.616,48.333,62.479,16.182l3.108,32.151Z" transform="translate(0 0)"/><path class="a" d="M189.08,79.914h31.668L215.5,86.826a12.217,12.217,0,0,1-9.752,4.823H167.7l.482-2.2c1.286-6.109,6.055-10.878,9.592-15.486l19.5-25.131H172.844l5.466-7.02a12.217,12.217,0,0,1,9.645-4.715h34.294Z" transform="translate(-77.839 -17.22)"/><path class="a" d="M273.6,31.615l5.519-7.073a12.217,12.217,0,0,1,9.592-4.662h1.929L292.783,9.7A12.324,12.324,0,0,1,304.84,0h5.251l-4.126,19.88h22.72l-5.519,7.02a12.217,12.217,0,0,1-9.645,4.715H303.446L298.41,55.728c-1.393,7.341,3.912,7.02,7.609,7.02H316.36l-5.2,6.912a12.217,12.217,0,0,1-9.752,4.823h-8.091c-8.681,0-12.807-6.43-10.61-16.986l5.466-25.881Z" transform="translate(-126.993 0)"/><path class="a" d="M404.574,70.429a12.217,12.217,0,0,0,9.752-4.823l5.037-6.859H384.908c4.287-8.734,12.271-9.913,20.523-9.913h3.429a12.217,12.217,0,0,0,9.645-4.769l5.412-6.966h-19.4c-26.149,0-33.115,16.236-35.473,27.435-3.537,16.558,3.644,27.114,22.988,27.114h8.038a12.217,12.217,0,0,0,9.806-4.93l5.037-6.805H395.464c-11.628,0-13.825-4.447-13.557-9.484Z" transform="translate(-170.893 -17.22)"/><path class="a" d="M521.308,80.014l-5.037,6.805a12.217,12.217,0,0,1-9.806,4.93h-7.93c-19.344,0-26.524-10.556-22.988-27.114,2.358-11.2,9.324-27.435,35.473-27.435h19.344L524.9,44.273a12.11,12.11,0,0,1-9.7,4.608h-3.322c-9.86,0-19.076,1.608-22.452,15.754-1.554,6.484-3.537,15.379,12.539,15.379Z" transform="translate(-220.326 -17.267)"/><path class="a" d="M573.7,74.482l13.45-64.73A12.217,12.217,0,0,1,599.1,0h5.037L600.01,19.88h12.324c13.343,0,22.184,3.429,18.647,19.987l-7.716,36.062h0a11.521,11.521,0,0,1-11.253-13.878l4.394-20.523c1.125-5.466,1.179-9.913-7.5-9.913H597.491l-7.02,33.169a12.217,12.217,0,0,1-11.949,9.7Z" transform="translate(-266.287 0)"/></g></g></svg>