<svg xmlns="http://www.w3.org/2000/svg" xmlns:xlink="http://www.w3.org/1999/xlink" width="26" height="24.25" viewBox="0 0 26 24.25"><defs><style>.a{fill:none;}.b{opacity:0.5;}.c{clip-path:url(#a);}.d{fill:#005570;}</style><clipPath id="a"><rect class="a" width="26" height="24.25"/></clipPath></defs><g class="b" transform="translate(13 12.125)"><g class="c" transform="translate(-13 -12.125)"><path class="d" d="M24.9,6.3h-.7l-.4-1,.4-.5a1.3,1.3,0,0,0-.1-1.7L23,1.9a1.2,1.2,0,0,0-.9-.4l-.8.3-.5.4-1-.4V1.1A1.3,1.3,0,0,0,18.5,0H16.8a1.2,1.2,0,0,0-1.2,1.1v.6l-1.1.5L14,1.8a1.3,1.3,0,0,0-1.7.1L11,3.1a1.3,1.3,0,0,0-.1,1.7l.4.6-.4,1h-.7A1.3,1.3,0,0,0,9.1,7.6V9.3a1.3,1.3,0,0,0,1.1,1.2H11l.3.8-.5.6a1.3,1.3,0,0,0,.1,1.7L12.2,15a1.2,1.2,0,0,0,.9.4l.8-.3.6-.5.9.4v.8a1.3,1.3,0,0,0,1.2,1.1h1.7a1.3,1.3,0,0,0,1.2-1.1V15l1-.4.6.5A1.3,1.3,0,0,0,23,15l1.2-1.2a1.3,1.3,0,0,0,.1-1.7l-.4-.6.4-1H25a1.3,1.3,0,0,0,1-1.2V7.5a1.3,1.3,0,0,0-1.1-1.2m-7.3,4.4a2.3,2.3,0,1,1,2.3-2.3,2.3,2.3,0,0,1-2.3,2.3"/><path class="d" d="M9.2,16.2Z"/><path class="d" d="M9.2,16.2l3-.3a1.8,1.8,0,0,1-.9-.5l-1.2-1.2h-1c-4.2,0-7.3-1.7-7.3-3.1S4.3,8.5,8,8.1h.2V7.7a1.8,1.8,0,0,1,.7-1.4C3.8,6.3.1,8.5.1,11.2s3.9,5,9.1,5"/><path class="d" d="M9.1,20.2h0c3.6,0,6.7-1.1,8.2-2.7H16.2A1.8,1.8,0,0,1,15,17a11.7,11.7,0,0,1-6,1.4c-3.9,0-6.7-1.4-7.2-2.7a.919.919,0,1,0-1.7.7c.9,2.3,4.5,3.9,9,3.9"/><path class="d" d="M17.5,19.1h0a.9.9,0,0,0-1.2.6C15.8,21,13,22.4,9,22.4S2.3,21,1.8,19.7a.934.934,0,0,0-1.8.5H.1c.9,2.3,4.5,3.9,9,3.9s8.1-1.6,8.9-4a1,1,0,0,0-.6-1.2"/></g></g></svg>