<svg xmlns="http://www.w3.org/2000/svg" xmlns:xlink="http://www.w3.org/1999/xlink" width="24" height="24" viewBox="0 0 24 24"><defs><style>.a{fill:none;}.b{opacity:0.5;}.c{clip-path:url(#a);}.d{fill:#005570;}</style><clipPath id="a"><rect class="a" width="24" height="24"/></clipPath></defs><g class="b" transform="translate(12 12)"><g class="c" transform="translate(-12 -12)"><path class="d" d="M4.5,15H1.3A1.4,1.4,0,0,0,0,16.5v6a1.6,1.6,0,0,0,0,.2A1.4,1.4,0,0,0,1.5,24H4.7A1.4,1.4,0,0,0,6,22.5v-6a1.5,1.5,0,0,0,0-.2A1.4,1.4,0,0,0,4.5,15"/><path class="d" d="M13.5,0H10.3A1.4,1.4,0,0,0,9,1.5v21a1.7,1.7,0,0,0,0,.2A1.4,1.4,0,0,0,10.5,24h3.2A1.4,1.4,0,0,0,15,22.5V1.5a1.6,1.6,0,0,0,0-.2A1.4,1.4,0,0,0,13.5,0"/><path class="d" d="M22.5,7.5H19.3A1.4,1.4,0,0,0,18,9V22.5a1.6,1.6,0,0,0,0,.2A1.4,1.4,0,0,0,19.5,24h3.2A1.4,1.4,0,0,0,24,22.5V9a1.6,1.6,0,0,0,0-.2,1.4,1.4,0,0,0-1.5-1.3"/></g></g></svg>