<svg xmlns="http://www.w3.org/2000/svg" width="40" height="40" viewBox="0 0 40 40"><defs><style>.a{fill:#333132;}</style></defs><path class="a" d="M20,40A20.005,20.005,0,0,1,12.215,1.572a20.005,20.005,0,0,1,15.57,36.857A19.874,19.874,0,0,1,20,40ZM15.318,21.585a5.057,5.057,0,0,0-5.043,5.059v1.264a2.107,2.107,0,0,0,2.1,2.109h12.6a2.108,2.108,0,0,0,2.1-2.109V26.644a5.057,5.057,0,0,0-5.043-5.059h-.363a6.748,6.748,0,0,1-6,0ZM7.474,20.179a2.81,2.81,0,0,0-2.8,2.812V24.4a1.4,1.4,0,0,0,1.4,1.4H8.958A6.439,6.439,0,0,1,12.249,21a2.779,2.779,0,0,0-1.974-.817Zm19.084-2.717a.638.638,0,0,0-.639.636v1.276a.639.639,0,0,0,.639.639h2.551v2.55a.637.637,0,0,0,.636.636h1.275a.637.637,0,0,0,.636-.636v-2.55h2.55a.639.639,0,0,0,.639-.639V18.1a.638.638,0,0,0-.639-.636h-2.55v-2.55a.637.637,0,0,0-.636-.636H29.746a.637.637,0,0,0-.636.636v2.55ZM18.677,10.34a4.919,4.919,0,0,0,0,9.839,4.906,4.906,0,0,0,4.9-4.92A4.915,4.915,0,0,0,18.677,10.34Zm-9.8,2.812a2.811,2.811,0,1,0,2.8,2.81A2.809,2.809,0,0,0,8.875,13.151Z"/></svg>