<svg xmlns="http://www.w3.org/2000/svg" width="136" height="32" viewBox="0 0 136 32"><defs><style>.a{fill:#005570;opacity:0.5;}.b,.c{fill:#fff;}.b{font-size:16px;font-family:"WorkSans",sans-serif;font-weight:500;}</style></defs><g transform="translate(-841 -116)"><rect class="a" width="136" height="32" rx="6" transform="translate(841 116)"/><g transform="translate(873 122)"><text class="b" transform="translate(7)"><tspan x="0" y="16">EXPORT</tspan></text><g transform="translate(81.886 7)"><path class="c" d="M98.811,154.862c-.661.7-1.325,1.4-1.986,2.089q-1.588,1.668-3.172,3.336c-.242.259-.488.513-.73.771h1.161c-.661-.7-1.325-1.4-1.986-2.089q-1.588-1.668-3.172-3.336c-.242-.259-.488-.513-.73-.771a.821.821,0,0,0-1.161,1.161c.661.7,1.325,1.4,1.986,2.089q1.588,1.668,3.172,3.336c.242.259.488.513.73.771a.83.83,0,0,0,1.161,0c.661-.7,1.325-1.4,1.986-2.089q1.588-1.668,3.172-3.336c.242-.259.488-.513.73-.771a.821.821,0,0,0-1.161-1.161Z" transform="translate(-86.8 -154.625)"/></g></g><g transform="translate(853 123)"><path class="c" d="M12.7,4l-.069.023L4.572,5.808,4,5.945V19.629l.572.137,8.055,1.785.069.023h1.556v-2.2h7.323V6.2H14.252V4Zm.092,1.487v14.6l-7.323-1.6V7.089Zm1.465,2.174H20.11V17.913H14.252V16.448h1.465V14.984H14.252v-.732h1.465V12.787H14.252v-.732h1.465V10.59H14.252V9.858h1.465V8.394H14.252Zm2.2.732V9.858h2.929V8.394Zm-5.011.732-1.67.206L8.851,11.3c-.1.283-.169.5-.206.641H8.622a4.369,4.369,0,0,0-.183-.618L7.982,9.629l-1.556.183-.069.046,1.3,2.929L6.2,15.716l1.579.183.641-1.808a4.754,4.754,0,0,0,.16-.526H8.6a2.582,2.582,0,0,0,.114.5L9.7,16.22l1.785.229L9.538,12.764Zm5.011,1.465v1.465h2.929V10.59Zm0,2.2v1.465h2.929V12.787Zm0,2.2v1.465h2.929V14.984Z" transform="translate(-4 -4)"/></g></g></svg>